# Blender v2.76 (sub 0) OBJ File: 'jeep.blend'
# www.blender.org
mtllib dimlight.mtl
o Front_Light_Cylinder.001
v 1.393016 0.756992 3.199661
v 1.393016 0.756992 3.842283
v 1.455701 0.750818 3.199661
v 1.455701 0.750818 3.842283
v 1.515976 0.732534 3.199661
v 1.515976 0.732534 3.842283
v 1.571527 0.702842 3.199661
v 1.571527 0.702842 3.842283
v 1.620217 0.662882 3.199661
v 1.620217 0.662882 3.842283
v 1.660176 0.614192 3.199661
v 1.660176 0.614192 3.842283
v 1.689869 0.558642 3.199661
v 1.689869 0.558642 3.842283
v 1.708153 0.498366 3.199661
v 1.708153 0.498366 3.842283
v 1.714327 0.435681 3.199661
v 1.714327 0.435681 3.842283
v 1.708153 0.372996 3.199661
v 1.708153 0.372996 3.842283
v 1.689869 0.312721 3.199661
v 1.689869 0.312721 3.842283
v 1.660176 0.257170 3.199661
v 1.660176 0.257170 3.842283
v 1.620217 0.208480 3.199661
v 1.620217 0.208480 3.842283
v 1.571527 0.168521 3.199661
v 1.571527 0.168521 3.842283
v 1.515976 0.138828 3.199661
v 1.515976 0.138828 3.842283
v 1.455701 0.120544 3.199661
v 1.455701 0.120544 3.842283
v 1.393016 0.114370 3.199661
v 1.393016 0.114370 3.842283
v 1.330331 0.120544 3.199661
v 1.330331 0.120544 3.842283
v 1.270055 0.138828 3.199661
v 1.270055 0.138828 3.842283
v 1.214505 0.168521 3.199661
v 1.214505 0.168521 3.842283
v 1.165814 0.208480 3.199661
v 1.165814 0.208480 3.842283
v 1.125855 0.257170 3.199661
v 1.125855 0.257170 3.842283
v 1.096163 0.312721 3.199661
v 1.096163 0.312721 3.842283
v 1.077878 0.372997 3.199661
v 1.077878 0.372997 3.842283
v 1.071705 0.435681 3.199661
v 1.071705 0.435681 3.842283
v 1.077879 0.498366 3.199661
v 1.077879 0.498366 3.842283
v 1.096163 0.558642 3.199661
v 1.096163 0.558642 3.842283
v 1.125856 0.614192 3.199661
v 1.125856 0.614192 3.842283
v 1.165815 0.662883 3.199661
v 1.165815 0.662883 3.842283
v 1.214505 0.702842 3.199661
v 1.214505 0.702842 3.842283
v 1.270056 0.732534 3.199661
v 1.270056 0.732534 3.842283
v 1.330332 0.750818 3.199661
v 1.330332 0.750818 3.842283
v -1.658720 0.756992 3.199661
v -1.658720 0.756992 3.842283
v -1.596036 0.750818 3.199661
v -1.596036 0.750818 3.842283
v -1.535760 0.732534 3.199661
v -1.535760 0.732534 3.842283
v -1.480209 0.702842 3.199661
v -1.480209 0.702842 3.842283
v -1.431519 0.662882 3.199661
v -1.431519 0.662882 3.842283
v -1.391560 0.614192 3.199661
v -1.391560 0.614192 3.842283
v -1.361868 0.558642 3.199661
v -1.361868 0.558642 3.842283
v -1.343583 0.498366 3.199661
v -1.343583 0.498366 3.842283
v -1.337409 0.435681 3.199661
v -1.337409 0.435681 3.842283
v -1.343583 0.372996 3.199661
v -1.343583 0.372996 3.842283
v -1.361868 0.312721 3.199661
v -1.361868 0.312721 3.842283
v -1.391560 0.257170 3.199661
v -1.391560 0.257170 3.842283
v -1.431519 0.208480 3.199661
v -1.431519 0.208480 3.842283
v -1.480209 0.168521 3.199661
v -1.480209 0.168521 3.842283
v -1.535760 0.138828 3.199661
v -1.535760 0.138828 3.842283
v -1.596036 0.120544 3.199661
v -1.596036 0.120544 3.842283
v -1.658720 0.114370 3.199661
v -1.658720 0.114370 3.842283
v -1.721405 0.120544 3.199661
v -1.721406 0.120544 3.842283
v -1.781681 0.138828 3.199661
v -1.781681 0.138828 3.842283
v -1.837232 0.168521 3.199661
v -1.837232 0.168521 3.842283
v -1.885922 0.208480 3.199661
v -1.885922 0.208480 3.842283
v -1.925881 0.257170 3.199661
v -1.925881 0.257170 3.842283
v -1.955573 0.312721 3.199661
v -1.955573 0.312721 3.842283
v -1.973858 0.372997 3.199661
v -1.973858 0.372997 3.842283
v -1.980032 0.435681 3.199661
v -1.980032 0.435681 3.842283
v -1.973858 0.498366 3.199661
v -1.973858 0.498366 3.842283
v -1.955573 0.558642 3.199661
v -1.955573 0.558642 3.842283
v -1.925881 0.614192 3.199661
v -1.925881 0.614192 3.842283
v -1.885921 0.662883 3.199661
v -1.885921 0.662883 3.842283
v -1.837231 0.702842 3.199661
v -1.837231 0.702842 3.842283
v -1.781680 0.732534 3.199661
v -1.781680 0.732534 3.842283
v -1.721405 0.750818 3.199661
v -1.721405 0.750818 3.842283
vn 0.098000 0.995200 -0.000000
vn 0.290300 0.956900 -0.000000
vn 0.471400 0.881900 -0.000000
vn 0.634400 0.773000 -0.000000
vn 0.773000 0.634400 -0.000000
vn 0.881900 0.471400 -0.000000
vn 0.956900 0.290300 -0.000000
vn 0.995200 0.098000 -0.000000
vn 0.995200 -0.098000 0.000000
vn 0.956900 -0.290300 0.000000
vn 0.881900 -0.471400 0.000000
vn 0.773000 -0.634400 0.000000
vn 0.634400 -0.773000 0.000000
vn 0.471400 -0.881900 0.000000
vn 0.290300 -0.956900 0.000000
vn 0.098000 -0.995200 0.000000
vn -0.098000 -0.995200 0.000000
vn -0.290300 -0.956900 0.000000
vn -0.471400 -0.881900 0.000000
vn -0.634400 -0.773000 0.000000
vn -0.773000 -0.634400 0.000000
vn -0.881900 -0.471400 0.000000
vn -0.956900 -0.290300 0.000000
vn -0.995200 -0.098000 0.000000
vn -0.995200 0.098000 -0.000000
vn -0.956900 0.290300 0.000000
vn -0.881900 0.471400 -0.000000
vn -0.773000 0.634400 -0.000000
vn -0.634400 0.773000 0.000000
vn -0.471400 0.881900 -0.000000
vn -0.000000 0.000000 1.000000
vn -0.098000 0.995200 0.000000
vn -0.290300 0.956900 0.000000
vn 0.000000 0.000000 -1.000000
usemtl Rear_Light_White
s off
f 1//1 2//1 4//1 3//1
f 3//2 4//2 6//2 5//2
f 5//3 6//3 8//3 7//3
f 7//4 8//4 10//4 9//4
f 9//5 10//5 12//5 11//5
f 11//6 12//6 14//6 13//6
f 13//7 14//7 16//7 15//7
f 15//8 16//8 18//8 17//8
f 17//9 18//9 20//9 19//9
f 19//10 20//10 22//10 21//10
f 21//11 22//11 24//11 23//11
f 23//12 24//12 26//12 25//12
f 25//13 26//13 28//13 27//13
f 27//14 28//14 30//14 29//14
f 29//15 30//15 32//15 31//15
f 31//16 32//16 34//16 33//16
f 33//17 34//17 36//17 35//17
f 35//18 36//18 38//18 37//18
f 37//19 38//19 40//19 39//19
f 39//20 40//20 42//20 41//20
f 41//21 42//21 44//21 43//21
f 43//22 44//22 46//22 45//22
f 45//23 46//23 48//23 47//23
f 47//24 48//24 50//24 49//24
f 49//25 50//25 52//25 51//25
f 51//26 52//26 54//26 53//26
f 53//27 54//27 56//27 55//27
f 55//28 56//28 58//28 57//28
f 57//29 58//29 60//29 59//29
f 59//30 60//30 62//30 61//30
f 4//31 2//31 64//31 62//31 60//31 58//31 56//31 54//31 52//31 50//31 48//31 46//31 44//31 42//31 40//31 38//31 36//31 34//31 32//31 30//31 28//31 26//31 24//31 22//31 20//31 18//31 16//31 14//31 12//31 10//31 8//31 6//31
f 63//32 64//32 2//32 1//32
f 61//33 62//33 64//33 63//33
f 1//34 3//34 5//34 7//34 9//34 11//34 13//34 15//34 17//34 19//34 21//34 23//34 25//34 27//34 29//34 31//34 33//34 35//34 37//34 39//34 41//34 43//34 45//34 47//34 49//34 51//34 53//34 55//34 57//34 59//34 61//34 63//34
f 65//1 66//1 68//1 67//1
f 67//2 68//2 70//2 69//2
f 69//3 70//3 72//3 71//3
f 71//4 72//4 74//4 73//4
f 73//5 74//5 76//5 75//5
f 75//6 76//6 78//6 77//6
f 77//7 78//7 80//7 79//7
f 79//8 80//8 82//8 81//8
f 81//9 82//9 84//9 83//9
f 83//10 84//10 86//10 85//10
f 85//11 86//11 88//11 87//11
f 87//12 88//12 90//12 89//12
f 89//13 90//13 92//13 91//13
f 91//14 92//14 94//14 93//14
f 93//15 94//15 96//15 95//15
f 95//16 96//16 98//16 97//16
f 97//17 98//17 100//17 99//17
f 99//18 100//18 102//18 101//18
f 101//19 102//19 104//19 103//19
f 103//20 104//20 106//20 105//20
f 105//21 106//21 108//21 107//21
f 107//22 108//22 110//22 109//22
f 109//23 110//23 112//23 111//23
f 111//24 112//24 114//24 113//24
f 113//25 114//25 116//25 115//25
f 115//26 116//26 118//26 117//26
f 117//27 118//27 120//27 119//27
f 119//28 120//28 122//28 121//28
f 121//29 122//29 124//29 123//29
f 123//30 124//30 126//30 125//30
f 68//31 66//31 128//31 126//31 124//31 122//31 120//31 118//31 116//31 114//31 112//31 110//31 108//31 106//31 104//31 102//31 100//31 98//31 96//31 94//31 92//31 90//31 88//31 86//31 84//31 82//31 80//31 78//31 76//31 74//31 72//31 70//31
f 127//32 128//32 66//32 65//32
f 125//33 126//33 128//33 127//33
f 65//34 67//34 69//34 71//34 73//34 75//34 77//34 79//34 81//34 83//34 85//34 87//34 89//34 91//34 93//34 95//34 97//34 99//34 101//34 103//34 105//34 107//34 109//34 111//34 113//34 115//34 117//34 119//34 121//34 123//34 125//34 127//34
